<svg width="512" height="512" viewBox="0 0 512 512" fill="none" xmlns="http://www.w3.org/2000/svg">
<g clip-path="url(#clip0_4_7301)">
<path d="M256 512C397.385 512 512 397.385 512 256C512 114.615 397.385 0 256 0C114.615 0 0 114.615 0 256C0 397.385 114.615 512 256 512Z" fill="#6DA544"/>
<path d="M181.031 192.024C178.718 199.398 177.47 207.243 177.47 215.379C177.47 258.445 212.405 293.358 255.498 293.358C298.592 293.358 333.526 258.445 333.526 215.379C333.526 207.243 332.278 199.398 329.964 192.024C345.139 209.387 354.333 232.104 354.333 256.968C354.333 311.518 310.083 355.74 255.498 355.74C200.913 355.74 156.663 311.518 156.663 256.968C156.663 232.104 165.857 209.387 181.031 192.024Z" fill="white"/>
<path d="M233.225 135.579C169.327 145.801 121.292 199.273 121.292 262.742C121.292 333.399 180.824 391.665 255.5 391.665C330.176 391.665 389.707 333.399 389.708 262.742C389.708 212.444 359.54 168.426 315.218 147.235C321.378 143.679 327.194 138.862 332.167 132.468C334.744 129.155 336.92 125.643 338.752 121.987C388.952 149.875 423 202.241 423 262.742C423 318.866 393.701 367.989 349.388 397.065L358.229 421C359.734 425.073 359.925 429.516 358.775 433.704C355.734 444.779 344.284 451.292 333.202 448.253L255.499 427.442L177.796 448.253C166.715 451.292 155.266 444.779 152.224 433.704C151.074 429.516 151.264 425.073 152.77 421L161.611 397.064C117.298 367.988 88.0001 318.865 88 262.742C88 189.149 138.376 127.595 206.924 107.49C197.813 95.4448 194.228 80.4499 196.126 65.9125C196.357 64.1431 197.748 62.7492 199.518 62.5132C216.161 60.2942 233.467 65.2589 246.303 77.6465C249.957 81.1731 253.022 85.0821 255.5 89.2552C257.977 85.0821 261.042 81.1731 264.696 77.6465C277.532 65.2589 294.839 60.2942 311.481 62.5132C313.251 62.7492 314.642 64.1431 314.873 65.9125C317.13 83.1965 311.635 101.127 298.32 113.979C287.878 124.86 248.067 133.204 233.225 135.579Z" fill="white"/>
</g>
<defs>
<clipPath id="clip0_4_7301">
<rect width="512" height="512" fill="white"/>
</clipPath>
</defs>
</svg>
