<svg width="916" height="916" viewBox="0 0 916 916" fill="none" xmlns="http://www.w3.org/2000/svg">
<rect width="916" height="916" rx="225" fill="white"/>
<path d="M194.59 329.253C203.377 320.466 217.624 320.466 226.41 329.253C235.197 338.04 235.197 352.286 226.41 361.073L126.821 460.663L226.41 560.253C235.197 569.04 235.197 583.286 226.41 592.073C217.624 600.86 203.377 600.86 194.59 592.073L79.0901 476.573C70.3033 467.786 70.3033 453.54 79.0901 444.753L194.59 329.253ZM689.09 323.09C697.877 314.303 712.124 314.303 720.91 323.09L836.41 438.59C845.197 447.377 845.197 461.623 836.41 470.41L720.91 585.91C712.124 594.697 697.877 594.697 689.09 585.91C680.303 577.123 680.303 562.877 689.09 554.09L788.68 454.5L689.09 354.91C680.303 346.123 680.303 331.877 689.09 323.09Z" fill="black"/>
<path d="M457.5 244.5C468.117 244.5 478.543 247.294 487.738 252.596L487.739 252.595L621.128 329.002C621.157 329.019 621.186 329.036 621.215 329.053C630.422 334.381 638.063 342.039 643.376 351.253C648.689 360.467 651.489 370.915 651.5 381.55V534.411C651.489 545.046 648.689 555.494 643.376 564.707C638.063 573.921 630.422 581.579 621.215 586.908C621.186 586.925 621.157 586.941 621.128 586.958L487.739 663.366L487.738 663.365C479.045 668.377 469.252 671.146 459.237 671.434C458.664 671.477 458.085 671.5 457.5 671.5C456.915 671.5 456.335 671.477 455.762 671.434C445.747 671.146 435.954 668.377 427.261 663.365V663.366L293.872 586.958C293.843 586.941 293.814 586.925 293.785 586.908C284.578 581.579 276.937 573.921 271.624 564.707C266.311 555.494 263.511 545.046 263.5 534.411V381.55C263.511 370.915 266.311 360.467 271.624 351.253C276.937 342.039 284.578 334.381 293.785 329.053L293.872 329.002L427.261 252.595V252.596C436.456 247.294 446.883 244.5 457.5 244.5ZM308.5 534.365L308.509 534.883C308.596 537.467 309.317 539.991 310.607 542.229C311.983 544.615 313.957 546.589 316.325 547.96L435 615.938V470.984L308.5 398.106V534.365ZM480 470.984V615.938L598.674 547.96C601.042 546.589 603.017 544.615 604.393 542.229C605.765 539.848 606.493 537.145 606.5 534.389V398.106L480 470.984ZM457.5 289.5C454.77 289.5 452.085 290.22 449.715 291.592C449.686 291.609 449.657 291.626 449.628 291.643L331.399 359.365L457.5 432.014L583.6 359.365L465.372 291.643C465.343 291.626 465.314 291.609 465.285 291.592C462.915 290.22 460.23 289.5 457.5 289.5Z" fill="black"/>
</svg>
