<svg width="1024" height="975" viewBox="0 0 1024 975" fill="none" xmlns="http://www.w3.org/2000/svg">
<path d="M127.98 318.564C127.98 283.007 99.3445 254.208 63.99 254.208C28.6355 254.208 0 283.007 0 318.564V674.938C0 715.965 16.1575 755.223 44.953 784.183L204.768 944.913C223.965 964.22 250.041 975 277.237 975H383.94C426.333 975 460.728 940.408 460.728 897.772V770.829C460.728 723.044 441.851 677.191 408.256 643.403L367.783 602.698C356.104 590.953 330.828 565.532 292.274 526.757C272.277 506.646 239.803 506.646 219.806 526.757C199.809 546.869 199.809 579.53 219.806 599.641C258.36 638.416 283.636 663.837 295.314 675.582C312.911 693.28 310.032 722.562 289.395 736.398C273.877 746.856 253.08 744.765 239.803 731.411L157.895 649.195C138.698 629.889 127.98 603.663 127.98 576.312V318.564ZM895.86 318.564V576.312C895.86 603.663 885.142 629.889 865.945 649.195L784.198 731.411C770.92 744.765 750.123 746.856 734.605 736.398C713.969 722.562 711.089 693.119 728.686 675.582C740.364 663.837 765.64 638.416 804.194 599.641C824.191 579.53 824.191 546.869 804.194 526.757C784.198 506.646 751.723 506.646 731.726 526.757C693.172 565.532 667.896 590.953 656.218 602.698L615.744 643.403C582.149 677.191 563.272 723.044 563.272 770.829V897.772C563.272 940.408 597.667 975 640.06 975H746.763C773.959 975 800.035 964.22 819.232 944.913L979.047 784.183C1007.84 755.223 1024 715.965 1024 674.938L1023.84 318.564C1023.84 283.007 995.205 254.208 959.85 254.208C924.496 254.208 895.86 283.007 895.86 318.564Z" fill="#33C89E"/>
<path d="M511.064 86.1164L494.148 62.5167C465.955 23.2594 420.733 0 372.466 0C289.578 0 222.365 67.6224 222.365 151.016V153.966C222.365 180.742 229.357 208.427 241.086 235.998H360.625C364.234 235.998 367.504 233.842 368.97 230.438L404.832 143.868C409.004 133.883 418.703 127.303 429.416 127.076C440.13 126.849 450.054 133.202 454.452 143.074L512.304 272.305L558.992 178.36C563.616 169.169 572.976 163.269 583.238 163.269C593.501 163.269 602.861 169.056 607.485 178.36L633.648 230.892C635.227 233.955 638.272 235.884 641.767 235.884H781.155C792.996 208.313 799.875 180.629 799.875 153.852V150.902C799.762 67.6224 732.55 0 649.662 0C601.508 0 556.173 23.2594 527.98 62.5167L511.064 86.003V86.1164ZM751.947 290.459H641.655C617.747 290.459 595.869 276.843 585.156 255.286L583.238 251.428L535.31 347.983C530.686 357.4 520.988 363.3 510.5 363.073C500.012 362.846 490.652 356.606 486.367 347.075L430.77 222.836L418.928 251.428C409.117 275.141 386.111 290.572 360.625 290.572H270.181C323.41 374.306 408.892 451.345 462.346 492.418C476.33 503.083 493.471 508.416 510.951 508.416C528.431 508.416 545.685 503.197 559.556 492.418C613.236 451.232 698.718 374.192 751.947 290.459Z" fill="#33C89E"/>
</svg>
